<svg t="1764167218611" class="icon" viewBox="0 0 1024 1024" version="1.1" xmlns="http://www.w3.org/2000/svg" p-id="36342" xmlns:xlink="http://www.w3.org/1999/xlink" width="48" height="48"><path d="M511.947983 1024C229.705578 1024 0 794.294422 0 511.947983S229.705578 0 511.947983 0s511.947983 229.705578 511.947984 511.947983-229.705578 511.947983-511.947984 511.947984z m0-992.790003C246.871076 31.209997 31.209997 246.871076 31.209997 511.947983s215.661079 480.737986 480.737986 480.737987 480.737986-215.661079 480.737987-480.737987S777.128924 31.209997 511.947983 31.209997z" fill="#1e6696" p-id="36343"></path><path d="M759.339226 632.938738L633.354871 506.954384l119.222189-119.222189 0.416133-0.416133c3.4331-4.161333 5.305699-8.842832 5.3057-13.940465s-1.768566-9.779132-5.3057-13.940465l-0.208067-0.3121-86.139591-86.243625c-4.577466-4.577466-10.611399-7.074266-16.957432-7.074266s-12.275932 2.4968-16.957431 7.074266L516.005283 389.604795 390.853195 264.348674c-4.577466-4.577466-10.299299-6.970233-16.645332-6.970232s-12.692065 2.4968-17.061465 6.970232l-92.589657 92.797724c-3.953266 3.953266-6.450066 9.050899-6.970233 14.564666v4.681499c0.520167 5.513766 3.016966 10.507366 6.970233 14.564665l125.048054 125.152088-95.918724 95.814691c-3.016966 3.016966-4.9936 6.554099-6.241999 11.131565v0.208067l-21.222798 95.918724c-2.704866 10.611399 0.3121 21.534898 8.010566 29.441431 5.617799 6.137966 13.212232 9.362999 21.742964 9.362999 1.5605 0 3.016966-0.104033 4.0573-0.3121 0.728233 0 1.352433-0.104033 1.768567-0.104034h0.728233l96.959057-21.326831 0.728233-0.208067c4.265366-1.352433 7.698466-3.4331 10.403333-6.241999l96.230824-96.230824 125.984354 125.984354c4.577466 4.577466 10.403332 6.970233 16.645332 6.970233s12.692065-2.4968 17.061465-6.970233l92.693691-92.69369c9.571066-9.571066 9.571066-24.343798 0-33.914864zM609.739307 341.749467l39.844763-39.948796 71.470893 71.470893-39.844763 39.948796-71.470893-71.470893z m48.479529 94.56629L401.984761 692.965966l-71.470893-71.470893L586.747943 364.844864l71.470893 71.470893z m-245.830743 57.010261l-9.987199-9.987199 62.315961-62.31596-22.991365-22.991365-62.31596 62.419994-30.585797-30.585797 62.419994-62.524027-22.991365-22.991364-62.419994 62.524027-32.458397-32.458397 80.937926-80.937925L493.117952 412.700193l-80.729859 80.729859z m-40.572996 215.348979l-73.343493 16.125166 16.021132-73.55156 57.322361 57.426394z m307.938637-72.615259l-22.991365-22.991365-62.107894 62.211928-31.00193-31.001931 62.315961-62.31596-22.991365-22.991365-62.31596 62.315961-10.715433-10.715432 80.521792-80.521792 120.054455 119.326221-80.937925 80.833892-32.042264-32.042263 62.211928-62.107894z" fill="#1e6696" p-id="36344"></path></svg>