<svg
    t="1765450597625"
    class="icon"
    viewBox="0 0 1024 1024"
    version="1.1"
    xmlns="http://www.w3.org/2000/svg"
    p-id="19560"
    width="200"
    height="200"
>
    <path
        d="M775.876923 0a185.107692 185.107692 0 0 1 184.910769 176.64l0.196923 8.467692v380.258462a43.323077 43.323077 0 0 1-38.596923 43.086769l-4.726154 0.236308-4.726153-0.236308a43.323077 43.323077 0 0 1-38.321231-38.360615l-0.275692-4.726154V185.107692c0-49.821538-39.069538-90.978462-88.064-94.286769L779.815385 90.584615h-512c-49.821538 0-90.978462 39.069538-94.28677 88.064L173.292308 185.107692v653.784616c0 49.821538 39.069538 90.978462 88.064 94.286769l6.459077 0.236308h158.247384a45.292308 45.292308 0 0 1 4.923077 90.308923l-4.923077 0.275692H263.876923a185.107692 185.107692 0 0 1-184.910769-176.64L78.769231 838.892308V185.107692A185.107692 185.107692 0 0 1 255.409231 0.196923L263.876923 0h512z m-19.889231 638.503385a39.384615 39.384615 0 0 1 51.987693 3.072l141.115077 139.854769a39.384615 39.384615 0 0 1-0.472616 56.438154l-141.272615 135.246769c-15.753846 15.044923-40.644923 14.493538-55.729231-1.181539l-6.971077-7.286153-3.190154-3.780923a39.384615 39.384615 0 0 1 4.332308-51.908924l51.987692-49.821538H551.384615a39.384615 39.384615 0 0 1-39.108923-34.776615L512 819.751385v-10.161231a39.384615 39.384615 0 0 1 39.384615-39.384616h259.938462l-65.929846-65.378461a39.424 39.424 0 0 1-3.544616-51.987692l3.229539-3.702154 7.207384-7.286154zM752.246154 417.476923c10.633846 0 21.267692 9.570462 23.276308 20.086154l0.354461 3.544615v47.261539c0 10.633846-9.570462 21.267692-20.086154 23.276307L752.246154 512H287.507692c-10.633846 0-21.267692-9.570462-23.276307-20.086154L263.876923 488.369231v-47.261539a22.449231 22.449231 0 0 1 20.086154-23.394461l3.544615-0.236308h464.738462z m0-185.107692c10.633846 0 21.267692 9.570462 23.276308 20.086154l0.354461 3.544615v47.261538c0 10.633846-9.570462 21.267692-20.086154 23.276308l-3.544615 0.354462H287.507692c-10.633846 0-21.267692-9.570462-23.276307-20.086154L263.876923 303.261538V252.061538c0-10.633846 9.570462-18.077538 20.086154-19.456L287.507692 232.369231h464.738462z"
        p-id="19561"
    ></path>
</svg>