<svg t="1765532154862" class="icon" viewBox="0 0 1024 1024" version="1.1"
    xmlns="http://www.w3.org/2000/svg" p-id="38141" width="200" height="200">
    <path d="M0 0h1024v1024H0z" fill="#2E2F30" fill-opacity="0" p-id="38142"></path>
    <path
        d="M896 106.666667H128a21.333333 21.333333 0 0 0-21.333333 21.333333v768a21.333333 21.333333 0 0 0 21.333333 21.333333h768a21.333333 21.333333 0 0 0 21.333333-21.333333V128a21.333333 21.333333 0 0 0-21.333333-21.333333z m-21.333333 42.666666v725.333334h-725.333334v-725.333334h725.333334z"
        fill="#0084FF" p-id="38143"></path>
    <path
        d="M725.333333 233.258667a21.333333 21.333333 0 0 1 3.84 42.325333l-3.84 0.384-448-0.042667V725.333333a21.333333 21.333333 0 0 1-17.493333 20.992L256 746.666667a21.333333 21.333333 0 0 1-20.992-17.493334L234.666667 725.333333V254.592a21.333333 21.333333 0 0 1 17.493333-20.949333L256 233.301333h469.333333zM768 277.333333a21.333333 21.333333 0 0 1 20.992 17.493334L789.333333 298.666667v469.333333a21.333333 21.333333 0 0 1-17.493333 20.992L768 789.333333H298.666667a21.333333 21.333333 0 0 1-3.84-42.325333L298.666667 746.666667h448V298.666667a21.333333 21.333333 0 0 1 17.493333-20.992L768 277.333333z"
        fill="#0084FF" p-id="38144"></path>
    <path
        d="M298.666667 704H213.333333a21.333333 21.333333 0 0 0-21.333333 21.333333v85.333334a21.333333 21.333333 0 0 0 21.333333 21.333333h85.333334a21.333333 21.333333 0 0 0 21.333333-21.333333v-85.333334a21.333333 21.333333 0 0 0-21.333333-21.333333z m-21.333334 42.666667v42.666666h-42.666666v-42.666666h42.666666zM810.666667 192h-85.333334a21.333333 21.333333 0 0 0-21.333333 21.333333v85.333334a21.333333 21.333333 0 0 0 21.333333 21.333333h85.333334a21.333333 21.333333 0 0 0 21.333333-21.333333V213.333333a21.333333 21.333333 0 0 0-21.333333-21.333333z m-21.333334 42.666667v42.666666h-42.666666v-42.666666h42.666666z"
        fill="#0084FF" p-id="38145"></path>
</svg>