<svg
    t="1765447848589"
    class="icon"
    viewBox="0 0 1024 1024"
    version="1.1"
    xmlns="http://www.w3.org/2000/svg"
    p-id="5783"
    width="200"
    height="200"
>
    <path
        d="M341 316h-50V181c0-19.9-16.1-36-36-36s-36 16.1-36 36v135h-52c-19.9 0-36 16.1-36 36s16.1 36 36 36h174c19.9 0 36-16.1 36-36s-16.1-36-36-36zM341 422H167c-19.9 0-36 16.1-36 36s16.1 36 36 36h51v352c0 19.9 16.1 36 36 36s36-16.1 36-36V494h51c19.9 0 36-16.1 36-36s-16.1-36-36-36zM599 608H424c-19.9 0-36 16.1-36 36s16.1 36 36 36h52v166c0 19.9 16.1 36 36 36s36-16.1 36-36V680h51c19.9 0 36-16.1 36-36s-16.1-36-36-36zM599 502h-52V181c0-19.9-16.1-36-36-36s-36 16.1-36 36v321h-51c-19.9 0-36 16.1-36 36s16.1 36 36 36h175c19.9 0 36-16.1 36-36s-16.1-36-36-36zM678 389h174c19.9 0 36-16.1 36-36s-16.1-36-36-36h-50V182c0-19.9-16.1-36-36-36s-36 16.1-36 36v135h-52c-19.9 0-36 16.1-36 36s16.1 36 36 36zM852 423H678c-19.9 0-36 16.1-36 36s16.1 36 36 36h51v352c0 19.9 16.1 36 36 36s36-16.1 36-36V495h51c19.9 0 36-16.1 36-36s-16.1-36-36-36z"
        p-id="5784"
    ></path>
</svg>