<svg
    t="1765448178438"
    class="icon"
    viewBox="0 0 1040 1024"
    version="1.1"
    xmlns="http://www.w3.org/2000/svg"
    p-id="12187"
    width="200"
    height="200"
>
    <path
        d="M298.579386 0H0v282.46609h85.239339V69.126042h213.340047V0zM741.372777 0h298.74052v298.579386h-85.400472V85.239339H741.372777V0zM298.579386 1024H0V725.259481h85.239339v213.340047h213.340047v85.400472zM741.372777 1024h298.74052V725.259481h-85.400472v213.340047H741.372777v85.400472zM642.11487 693.032887L470.347128 334.512038c0-4.995122-4.995122-10.151377-10.151377-15.146499a4.995122 4.995122 0 0 0-4.995122-4.995122c-4.995122-10.151377-10.151377-10.151377-15.146498-10.151377a18.530291 18.530291 0 0 0-15.146499 4.995122 4.995122 4.995122 0 0 0-4.995122 4.995122 27.070338 27.070338 0 0 0-15.146499 20.141621l-177.246263 353.525728a43.183635 43.183635 0 0 0 15.629898 46.084028c10.151377 4.995122 35.28812 10.151377 40.444374-10.151377l60.585996-111.181747H531.738788l55.590874 116.176869a32.226593 32.226593 0 0 0 40.444374 10.151377 43.183635 43.183635 0 0 0 14.340834-45.922896z m-262.646735-156.621243v-4.995122l60.585996-111.181746 55.590873 116.176868zM723.003619 294.067663a43.505901 43.505901 0 0 0-40.444374 40.444375v368.672226a37.221715 37.221715 0 0 0 40.444374 40.444375 39.799843 39.799843 0 0 0 40.444375-40.444375V334.512038c-5.156255-19.497089-20.302754-40.444375-40.444375-40.444375z"
        p-id="12188"
    ></path>
</svg>